<svg id="svg" version="1.1" xmlns="http://www.w3.org/2000/svg" xmlns:xlink="http://www.w3.org/1999/xlink" width="400" height="469.3069306930693" viewBox="0, 0, 400,469.3069306930693"><g id="svgg"><path id="path0" d="M280.667 98.267 C 280.520 98.413,280.400 98.851,280.400 99.239 C 280.400 99.666,280.045 99.995,279.500 100.072 C 278.922 100.154,278.554 100.522,278.472 101.100 C 278.380 101.751,278.076 102.000,277.372 102.000 C 276.602 102.000,276.400 102.208,276.400 103.000 C 276.400 103.800,276.200 104.000,275.400 104.000 C 274.600 104.000,274.400 104.200,274.400 105.000 C 274.400 105.800,274.200 106.000,273.400 106.000 C 272.600 106.000,272.400 106.200,272.400 107.000 C 272.400 107.800,272.200 108.000,271.400 108.000 C 270.600 108.000,270.400 108.200,270.400 109.000 C 270.400 109.945,270.057 110.180,268.900 110.030 C 268.614 109.993,268.400 110.400,268.400 110.982 C 268.400 111.806,268.206 112.000,267.382 112.000 C 266.800 112.000,266.393 112.214,266.430 112.500 C 266.580 113.657,266.345 114.000,265.400 114.000 C 264.600 114.000,264.400 114.200,264.400 115.000 C 264.400 115.800,264.200 116.000,263.400 116.000 C 262.600 116.000,262.400 116.200,262.400 117.000 C 262.400 117.800,262.200 118.000,261.400 118.000 C 260.600 118.000,260.400 118.200,260.400 119.000 C 260.400 119.915,259.882 120.234,258.700 120.047 C 258.535 120.021,258.400 120.357,258.400 120.792 C 258.400 121.304,258.046 121.674,257.400 121.836 C 256.801 121.986,256.400 122.373,256.400 122.800 C 256.400 123.235,255.993 123.615,255.358 123.775 C 254.594 123.967,254.368 124.234,254.510 124.778 C 254.658 125.342,254.428 125.574,253.552 125.750 C 252.754 125.909,252.400 126.220,252.400 126.762 C 252.400 127.269,252.083 127.589,251.500 127.672 C 250.930 127.753,250.554 128.121,250.475 128.675 C 250.398 129.221,250.021 129.598,249.475 129.675 C 248.921 129.754,248.553 130.130,248.472 130.700 C 248.391 131.275,248.068 131.600,247.580 131.600 C 247.098 131.600,246.722 131.970,246.564 132.600 C 246.408 133.221,246.030 133.600,245.564 133.600 C 245.099 133.600,244.720 133.979,244.564 134.600 C 244.411 135.209,244.028 135.600,243.584 135.600 C 243.133 135.600,242.807 135.943,242.728 136.500 C 242.646 137.078,242.278 137.446,241.700 137.528 C 241.049 137.620,240.800 137.924,240.800 138.628 C 240.800 139.398,240.592 139.600,239.800 139.600 C 239.000 139.600,238.800 139.800,238.800 140.600 C 238.800 141.400,238.600 141.600,237.800 141.600 C 237.000 141.600,236.800 141.800,236.800 142.600 C 236.800 143.400,236.600 143.600,235.800 143.600 C 235.000 143.600,234.800 143.800,234.800 144.600 C 234.800 145.400,234.600 145.600,233.800 145.600 C 233.000 145.600,232.800 145.800,232.800 146.600 C 232.800 147.400,232.600 147.600,231.800 147.600 C 231.000 147.600,230.800 147.800,230.800 148.600 C 230.800 149.400,230.600 149.600,229.800 149.600 C 229.000 149.600,228.800 149.800,228.800 150.600 C 228.800 151.400,228.600 151.600,227.800 151.600 C 227.000 151.600,226.800 151.800,226.800 152.600 C 226.800 153.400,226.600 153.600,225.800 153.600 C 225.000 153.600,224.800 153.800,224.800 154.600 C 224.800 155.400,224.600 155.600,223.800 155.600 C 223.000 155.600,222.800 155.800,222.800 156.600 C 222.800 157.400,222.600 157.600,221.800 157.600 C 221.086 157.600,220.800 157.816,220.800 158.357 C 220.800 158.830,220.426 159.207,219.800 159.364 C 219.170 159.522,218.800 159.898,218.800 160.380 C 218.800 160.868,218.475 161.191,217.900 161.272 C 217.330 161.353,216.954 161.721,216.875 162.275 C 216.798 162.821,216.421 163.198,215.875 163.275 C 215.330 163.353,214.953 163.730,214.875 164.275 C 214.798 164.821,214.421 165.198,213.875 165.275 C 213.330 165.353,212.953 165.730,212.875 166.275 C 212.798 166.821,212.421 167.198,211.875 167.275 C 211.330 167.353,210.953 167.730,210.875 168.275 C 210.798 168.821,210.421 169.198,209.875 169.275 C 209.330 169.353,208.953 169.730,208.875 170.275 C 208.798 170.821,208.421 171.198,207.875 171.275 C 207.330 171.353,206.953 171.730,206.875 172.275 C 206.798 172.821,206.421 173.198,205.875 173.275 C 205.321 173.354,204.953 173.730,204.872 174.300 C 204.791 174.875,204.468 175.200,203.980 175.200 C 203.498 175.200,203.122 175.570,202.964 176.200 C 202.807 176.826,202.430 177.200,201.957 177.200 C 201.422 177.200,201.200 177.485,201.200 178.172 C 201.200 178.876,200.951 179.180,200.300 179.272 C 199.722 179.354,199.354 179.722,199.272 180.300 C 199.180 180.951,198.876 181.200,198.172 181.200 C 197.402 181.200,197.200 181.408,197.200 182.200 C 197.200 182.911,196.983 183.200,196.451 183.200 C 196.039 183.200,193.799 185.045,191.473 187.300 C 189.147 189.555,186.069 192.480,184.634 193.800 C 181.180 196.977,180.077 200.800,182.614 200.800 C 183.180 200.800,183.366 201.253,183.230 202.300 C 183.193 202.586,183.600 202.800,184.182 202.800 C 184.950 202.800,185.200 203.007,185.200 203.642 C 185.200 204.106,185.639 204.830,186.175 205.252 C 186.770 205.720,187.199 206.523,187.275 207.310 C 187.371 208.296,187.612 208.630,188.300 208.728 C 188.951 208.820,189.200 209.124,189.200 209.828 C 189.200 210.363,189.335 210.779,189.500 210.753 C 190.693 210.564,191.200 210.884,191.200 211.826 C 191.200 213.150,191.874 214.400,192.588 214.400 C 192.900 214.400,193.203 214.885,193.273 215.500 C 193.364 216.288,193.656 216.636,194.300 216.728 C 194.951 216.820,195.200 217.124,195.200 217.828 C 195.200 218.363,195.335 218.779,195.500 218.753 C 196.871 218.536,197.200 218.857,197.200 220.410 C 197.200 221.746,197.365 222.083,198.169 222.388 C 198.731 222.602,199.194 223.145,199.269 223.678 C 199.354 224.278,199.714 224.645,200.300 224.728 C 200.951 224.820,201.200 225.124,201.200 225.828 C 201.200 226.533,201.419 226.800,202.000 226.800 C 202.525 226.800,202.800 227.067,202.800 227.576 C 202.800 228.003,202.963 228.454,203.162 228.577 C 203.362 228.700,203.423 229.189,203.299 229.664 C 203.112 230.381,203.212 230.490,203.896 230.311 C 204.556 230.139,204.765 230.325,204.950 231.248 C 205.112 232.062,205.418 232.400,205.990 232.400 C 206.587 232.400,206.800 232.663,206.800 233.400 C 206.800 233.950,206.980 234.400,207.200 234.400 C 207.420 234.400,207.600 234.676,207.600 235.013 C 207.600 235.349,207.850 235.721,208.155 235.838 C 208.460 235.955,208.818 236.588,208.949 237.245 C 209.120 238.098,209.389 238.404,209.894 238.319 C 210.404 238.233,210.635 238.505,210.727 239.300 C 210.826 240.164,211.062 240.400,211.827 240.400 C 212.646 240.400,212.800 240.594,212.800 241.626 C 212.800 243.127,213.436 244.400,214.186 244.400 C 214.493 244.400,214.802 244.805,214.872 245.300 C 214.954 245.878,215.322 246.246,215.900 246.328 C 216.557 246.421,216.800 246.724,216.800 247.446 C 216.800 247.991,217.288 248.923,217.884 249.518 C 218.480 250.113,218.975 250.960,218.984 251.400 C 218.994 251.919,219.316 252.245,219.900 252.328 C 220.530 252.417,220.800 252.727,220.800 253.358 C 220.800 253.854,221.240 254.674,221.778 255.180 C 222.316 255.685,222.811 256.571,222.878 257.149 C 222.964 257.887,223.268 258.238,223.900 258.328 C 224.543 258.419,224.800 258.725,224.800 259.399 C 224.800 259.920,225.233 260.682,225.767 261.102 C 226.299 261.521,226.794 262.389,226.867 263.031 C 226.963 263.878,227.242 264.234,227.877 264.325 C 228.571 264.424,228.780 264.758,228.877 265.925 C 228.967 267.002,229.243 267.506,229.900 267.795 C 230.449 268.036,230.800 268.540,230.800 269.087 C 230.800 269.711,231.105 270.061,231.800 270.236 C 232.679 270.456,232.800 270.702,232.800 272.269 C 232.800 273.874,232.887 274.038,233.678 273.925 C 234.335 273.832,234.616 274.052,234.796 274.800 C 235.138 276.225,238.128 276.309,238.328 274.900 C 238.420 274.249,238.724 274.000,239.428 274.000 C 240.198 274.000,240.400 273.792,240.400 273.000 C 240.400 272.200,240.600 272.000,241.400 272.000 C 242.200 272.000,242.400 271.800,242.400 271.000 C 242.400 270.208,242.602 270.000,243.372 270.000 C 244.076 270.000,244.380 269.751,244.472 269.100 C 244.553 268.530,244.921 268.154,245.475 268.075 C 246.021 267.998,246.398 267.621,246.475 267.075 C 246.554 266.521,246.930 266.153,247.500 266.072 C 248.143 265.981,248.400 265.675,248.400 265.000 C 248.400 264.325,248.657 264.019,249.300 263.928 C 249.878 263.846,250.246 263.478,250.328 262.900 C 250.408 262.334,250.733 262.000,251.201 262.000 C 251.611 262.000,252.059 261.644,252.197 261.209 C 252.335 260.774,253.337 259.481,254.424 258.335 C 255.624 257.071,256.400 255.889,256.400 255.326 C 256.400 254.605,256.621 254.400,257.400 254.400 C 258.200 254.400,258.400 254.200,258.400 253.400 C 258.400 252.600,258.600 252.400,259.400 252.400 C 260.200 252.400,260.400 252.200,260.400 251.400 C 260.400 250.600,260.600 250.400,261.400 250.400 C 262.200 250.400,262.400 250.200,262.400 249.400 C 262.400 248.600,262.600 248.400,263.400 248.400 C 264.200 248.400,264.400 248.200,264.400 247.400 C 264.400 246.600,264.600 246.400,265.400 246.400 C 266.200 246.400,266.400 246.200,266.400 245.400 C 266.400 244.600,266.600 244.400,267.400 244.400 C 268.192 244.400,268.400 244.198,268.400 243.428 C 268.400 242.724,268.649 242.420,269.300 242.328 C 269.891 242.244,270.200 241.925,270.200 241.400 C 270.200 240.867,270.534 240.532,271.200 240.397 C 271.852 240.265,272.245 239.882,272.328 239.297 C 272.409 238.725,272.733 238.400,273.220 238.400 C 273.702 238.400,274.078 238.030,274.236 237.400 C 274.393 236.774,274.770 236.400,275.243 236.400 C 275.784 236.400,276.000 236.114,276.000 235.400 C 276.000 234.455,276.343 234.220,277.500 234.370 C 277.786 234.407,278.000 234.000,278.000 233.418 C 278.000 232.592,278.194 232.400,279.025 232.400 C 279.852 232.400,280.026 232.230,279.925 231.522 C 279.831 230.865,280.052 230.584,280.800 230.406 C 281.419 230.258,281.847 229.840,281.925 229.308 C 282.001 228.782,282.386 228.401,282.921 228.325 C 283.400 228.256,283.853 227.879,283.928 227.486 C 284.003 227.094,284.500 226.337,285.032 225.804 C 285.564 225.272,286.000 224.648,286.000 224.418 C 286.000 224.188,286.205 224.000,286.456 224.000 C 287.128 224.000,287.973 222.732,287.987 221.700 C 287.997 221.010,288.233 220.800,289.000 220.800 C 289.800 220.800,290.000 220.600,290.000 219.800 C 290.000 219.000,290.200 218.800,291.000 218.800 C 291.800 218.800,292.000 218.600,292.000 217.800 C 292.000 217.000,292.200 216.800,293.000 216.800 C 293.800 216.800,294.000 216.600,294.000 215.800 C 294.000 214.885,294.518 214.566,295.700 214.753 C 295.865 214.779,296.000 214.350,296.000 213.800 C 296.000 213.000,296.200 212.800,297.000 212.800 C 297.800 212.800,298.000 212.600,298.000 211.800 C 298.000 211.000,298.200 210.800,299.000 210.800 C 299.800 210.800,300.000 210.600,300.000 209.800 C 300.000 209.000,300.200 208.800,301.000 208.800 C 301.792 208.800,302.000 208.598,302.000 207.828 C 302.000 207.124,302.249 206.820,302.900 206.728 C 303.482 206.645,303.800 206.324,303.801 205.818 C 303.802 205.313,304.157 204.952,304.801 204.801 C 305.421 204.656,305.847 204.241,305.925 203.708 C 306.001 203.180,306.386 202.801,306.925 202.725 C 307.479 202.646,307.847 202.270,307.928 201.700 C 308.012 201.107,308.330 200.800,308.861 200.800 C 309.325 200.800,309.596 200.589,309.501 200.304 C 309.292 199.675,310.147 198.800,310.971 198.800 C 311.336 198.800,311.600 198.460,311.600 197.990 C 311.600 197.494,311.988 197.033,312.600 196.800 C 313.196 196.573,313.600 196.104,313.600 195.638 C 313.600 195.131,313.917 194.811,314.500 194.728 C 315.072 194.647,315.446 194.279,315.525 193.719 C 315.594 193.234,315.999 192.727,316.425 192.592 C 316.851 192.457,317.200 192.184,317.200 191.987 C 317.200 191.789,317.740 191.075,318.400 190.400 C 319.077 189.708,319.600 188.743,319.600 188.186 C 319.600 187.401,319.804 187.200,320.600 187.200 C 321.400 187.200,321.600 187.000,321.600 186.200 C 321.600 185.400,321.800 185.200,322.600 185.200 C 323.400 185.200,323.600 185.000,323.600 184.200 C 323.600 183.400,323.800 183.200,324.600 183.200 C 325.400 183.200,325.600 183.000,325.600 182.200 C 325.600 181.400,325.800 181.200,326.600 181.200 C 327.400 181.200,327.600 181.000,327.600 180.200 C 327.600 179.400,327.800 179.200,328.600 179.200 C 329.400 179.200,329.600 179.000,329.600 178.200 C 329.600 177.400,329.800 177.200,330.600 177.200 C 331.400 177.200,331.600 177.000,331.600 176.200 C 331.600 175.255,331.943 175.020,333.100 175.170 C 333.383 175.207,333.600 174.805,333.600 174.245 C 333.600 173.524,333.844 173.221,334.500 173.128 C 335.070 173.047,335.446 172.679,335.525 172.125 C 335.601 171.586,335.980 171.201,336.508 171.125 C 337.041 171.047,337.456 170.621,337.601 170.001 C 337.752 169.360,338.114 169.002,338.613 169.001 C 339.120 169.000,339.461 168.653,339.595 168.000 C 339.731 167.335,340.068 167.000,340.600 167.000 C 341.125 167.000,341.444 166.691,341.528 166.100 C 341.609 165.525,341.932 165.200,342.420 165.200 C 342.902 165.200,343.278 164.830,343.436 164.200 C 343.574 163.650,343.941 163.200,344.252 163.200 C 344.563 163.200,345.021 162.753,345.269 162.208 C 345.518 161.662,346.054 161.110,346.461 160.981 C 346.913 160.837,347.200 160.368,347.200 159.773 C 347.200 159.088,347.422 158.800,347.951 158.800 C 348.411 158.800,348.898 158.329,349.206 157.586 C 349.482 156.919,350.134 156.038,350.654 155.629 C 351.174 155.220,351.600 154.615,351.600 154.286 C 351.600 153.956,352.050 153.574,352.600 153.436 C 353.230 153.278,353.600 152.902,353.600 152.420 C 353.600 151.932,353.925 151.609,354.500 151.528 C 355.078 151.446,355.446 151.078,355.528 150.500 C 355.607 149.943,355.933 149.600,356.384 149.600 C 356.828 149.600,357.211 149.209,357.364 148.600 C 357.526 147.954,357.896 147.600,358.408 147.600 C 358.986 147.600,359.200 147.330,359.200 146.600 C 359.200 145.800,359.400 145.600,360.200 145.600 C 361.000 145.600,361.200 145.400,361.200 144.600 C 361.200 143.800,361.400 143.600,362.200 143.600 C 363.000 143.600,363.200 143.400,363.200 142.600 C 363.200 141.800,363.400 141.600,364.200 141.600 C 364.992 141.600,365.200 141.398,365.200 140.628 C 365.200 139.924,365.449 139.620,366.100 139.528 C 366.670 139.447,367.046 139.079,367.125 138.525 C 367.202 137.979,367.579 137.602,368.125 137.525 C 368.670 137.447,369.047 137.070,369.125 136.525 C 369.202 135.979,369.579 135.602,370.125 135.525 C 370.670 135.447,371.047 135.070,371.125 134.525 C 371.202 133.979,371.579 133.602,372.125 133.525 C 372.664 133.448,373.047 133.070,373.122 132.541 C 373.190 132.068,373.608 131.587,374.052 131.470 C 374.496 131.354,374.955 130.892,375.073 130.443 C 375.190 129.994,375.618 129.521,376.023 129.393 C 376.428 129.264,376.867 128.817,377.000 128.400 C 377.133 127.983,377.574 127.535,377.981 127.406 C 378.388 127.277,378.832 126.728,378.968 126.186 C 379.104 125.644,379.366 125.200,379.550 125.200 C 379.734 125.200,380.396 124.390,381.022 123.400 C 381.648 122.410,382.394 121.600,382.680 121.600 C 382.968 121.600,383.200 121.154,383.200 120.600 C 383.200 119.800,383.400 119.600,384.200 119.600 C 385.000 119.600,385.200 119.400,385.200 118.600 C 385.200 117.808,385.402 117.600,386.172 117.600 C 386.876 117.600,387.180 117.351,387.272 116.700 C 387.354 116.122,387.722 115.754,388.300 115.672 C 388.857 115.593,389.200 115.267,389.200 114.816 C 389.200 114.372,389.591 113.989,390.200 113.836 C 390.819 113.680,391.200 113.301,391.200 112.839 C 391.200 112.421,391.564 111.998,392.030 111.876 C 392.486 111.757,392.953 111.303,393.067 110.867 C 393.181 110.431,393.631 109.981,394.067 109.867 C 394.503 109.753,394.957 109.286,395.076 108.830 C 395.196 108.373,395.547 108.000,395.857 108.000 C 396.166 108.000,396.582 107.575,396.779 107.055 C 396.977 106.535,397.512 106.012,397.969 105.892 C 398.477 105.759,398.800 105.349,398.800 104.837 C 398.800 104.360,399.058 104.000,399.400 104.000 C 399.880 104.000,400.000 103.400,400.000 101.000 L 400.000 98.000 340.467 98.000 C 307.723 98.000,280.813 98.120,280.667 98.267 M125.200 147.000 C 124.778 147.509,124.869 147.600,125.800 147.600 C 126.731 147.600,126.822 147.509,126.400 147.000 C 126.126 146.670,125.856 146.400,125.800 146.400 C 125.744 146.400,125.474 146.670,125.200 147.000 M116.900 163.865 C 116.410 164.063,116.179 165.200,116.629 165.200 C 116.754 165.200,117.114 164.943,117.429 164.629 C 118.348 163.709,118.116 163.374,116.900 163.865 M185.200 194.600 C 185.200 194.930,184.908 195.200,184.551 195.200 C 184.020 195.200,183.992 195.091,184.400 194.600 C 184.674 194.270,184.966 194.000,185.049 194.000 C 185.132 194.000,185.200 194.270,185.200 194.600 M182.673 197.498 C 182.182 197.990,182.071 198.002,182.138 197.559 C 182.291 196.544,182.924 195.771,183.120 196.359 C 183.215 196.645,183.014 197.157,182.673 197.498 M151.600 199.533 C 151.600 199.702,151.816 200.056,152.080 200.320 C 152.735 200.975,153.223 200.925,152.957 200.231 C 152.718 199.610,151.600 199.035,151.600 199.533 M161.200 213.474 C 161.200 213.658,161.575 214.042,162.034 214.328 C 162.770 214.788,162.852 214.764,162.729 214.129 C 162.593 213.421,161.200 212.824,161.200 213.474 M167.200 222.200 C 167.200 222.530,167.492 222.800,167.849 222.800 C 168.380 222.800,168.408 222.691,168.000 222.200 C 167.726 221.870,167.434 221.600,167.351 221.600 C 167.268 221.600,167.200 221.870,167.200 222.200 M77.192 227.810 C 76.419 228.741,76.971 228.917,77.798 228.002 C 78.197 227.561,78.338 227.200,78.111 227.200 C 77.884 227.200,77.470 227.474,77.192 227.810 M177.600 235.254 C 177.930 235.554,178.459 236.070,178.775 236.400 C 179.221 236.865,179.214 236.780,178.741 236.022 C 178.406 235.484,177.877 234.968,177.566 234.876 C 177.110 234.741,177.117 234.815,177.600 235.254 M66.962 242.058 C 66.205 242.910,66.206 242.913,67.078 242.456 C 68.050 241.946,68.649 241.200,68.086 241.200 C 67.887 241.200,67.381 241.586,66.962 242.058 M193.200 257.102 C 193.200 257.322,193.470 257.726,193.800 258.000 C 194.135 258.278,194.400 258.321,194.400 258.098 C 194.400 257.878,194.130 257.474,193.800 257.200 C 193.465 256.922,193.200 256.879,193.200 257.102 M205.287 274.825 C 205.665 275.045,206.155 275.535,206.375 275.913 C 206.595 276.291,206.781 276.388,206.788 276.129 C 206.795 275.869,206.517 275.374,206.171 275.029 C 205.826 274.683,205.331 274.405,205.071 274.412 C 204.812 274.419,204.909 274.605,205.287 274.825 M23.592 313.010 C 22.819 313.941,23.371 314.117,24.198 313.202 C 24.597 312.761,24.738 312.400,24.511 312.400 C 24.284 312.400,23.870 312.674,23.592 313.010 M230.800 332.302 C 230.800 332.522,231.070 332.926,231.400 333.200 C 231.735 333.478,232.000 333.521,232.000 333.298 C 232.000 333.078,231.730 332.674,231.400 332.400 C 231.065 332.122,230.800 332.079,230.800 332.302 M282.112 390.373 C 282.072 390.908,282.292 391.128,282.827 391.088 C 283.719 391.021,283.796 390.756,283.120 390.080 C 282.444 389.404,282.179 389.481,282.112 390.373 M41.043 421.369 C 41.282 421.990,42.400 422.565,42.400 422.067 C 42.400 421.670,41.530 420.800,41.133 420.800 C 40.963 420.800,40.923 421.056,41.043 421.369 M205.544 425.187 C 205.025 425.619,204.797 425.979,205.038 425.987 C 205.279 425.994,205.802 425.640,206.200 425.200 C 207.126 424.176,206.766 424.169,205.544 425.187 " stroke="none" fill="#431cf4" fill-rule="evenodd"></path><path id="path1" d="M184.400 194.600 C 183.992 195.091,184.020 195.200,184.551 195.200 C 184.908 195.200,185.200 194.930,185.200 194.600 C 185.200 194.270,185.132 194.000,185.049 194.000 C 184.966 194.000,184.674 194.270,184.400 194.600 M181.789 196.018 C 181.647 196.247,181.725 196.669,181.962 196.954 C 182.199 197.240,182.260 197.631,182.097 197.824 C 181.933 198.016,182.115 197.933,182.500 197.638 C 182.885 197.343,183.200 196.832,183.200 196.502 C 183.200 195.989,183.102 195.981,182.525 196.451 C 181.934 196.932,181.883 196.913,182.113 196.300 C 182.400 195.532,182.198 195.356,181.789 196.018 M256.667 357.867 C 256.520 358.013,256.400 360.975,256.400 364.448 C 256.400 370.651,256.382 370.781,255.400 371.764 C 254.420 372.744,254.400 372.886,254.400 378.935 C 254.400 384.602,254.339 385.123,253.661 385.300 C 252.715 385.547,252.400 387.132,252.400 391.650 C 252.400 394.922,252.338 395.200,251.608 395.200 C 250.648 395.200,250.437 395.975,250.301 400.000 C 250.222 402.335,250.075 402.973,249.637 402.879 C 248.745 402.687,248.413 403.611,248.406 406.300 C 248.401 408.502,248.308 408.800,247.627 408.800 C 246.819 408.800,246.541 409.408,246.450 411.378 C 246.402 412.431,246.024 412.966,245.096 413.295 C 244.929 413.354,244.717 414.154,244.626 415.071 C 244.531 416.031,244.117 417.083,243.652 417.548 C 243.208 417.992,242.725 418.995,242.578 419.778 C 242.431 420.560,242.080 421.200,241.798 421.200 C 241.167 421.200,240.800 422.093,240.800 423.633 C 240.800 424.275,240.620 424.823,240.400 424.850 C 240.180 424.877,239.775 424.923,239.500 424.950 C 239.197 424.980,238.952 425.747,238.878 426.900 C 238.768 428.615,238.661 428.800,237.778 428.800 C 237.001 428.800,236.800 429.006,236.800 429.800 C 236.800 430.350,236.620 430.823,236.400 430.850 C 236.180 430.877,235.775 430.923,235.500 430.950 C 235.210 430.979,234.949 431.702,234.878 432.675 C 234.778 434.048,234.598 434.373,233.881 434.475 C 233.318 434.555,232.933 434.958,232.803 435.600 C 232.691 436.150,232.330 436.600,232.000 436.600 C 231.670 436.600,231.220 437.013,231.000 437.517 C 230.780 438.021,230.196 438.535,229.703 438.659 C 229.209 438.784,228.891 439.023,228.994 439.191 C 229.237 439.584,227.767 441.293,227.330 441.126 C 227.149 441.057,226.945 441.476,226.878 442.057 C 226.785 442.855,226.577 443.067,226.028 442.923 C 225.496 442.784,225.187 443.061,224.873 443.963 C 224.584 444.791,224.253 445.119,223.858 444.967 C 223.494 444.827,223.173 445.055,223.009 445.571 C 222.864 446.027,222.568 446.400,222.349 446.400 C 222.131 446.400,222.063 446.578,222.197 446.795 C 222.343 447.031,222.162 447.084,221.751 446.926 C 221.216 446.721,221.121 446.816,221.326 447.351 C 221.484 447.762,221.431 447.943,221.195 447.797 C 220.978 447.663,220.800 447.731,220.800 447.949 C 220.800 448.168,220.440 448.460,220.001 448.600 C 219.561 448.739,219.097 449.271,218.969 449.781 C 218.802 450.446,218.524 450.653,217.986 450.512 C 217.432 450.367,217.168 450.589,216.975 451.358 C 216.831 451.931,216.553 452.423,216.357 452.450 C 216.160 452.477,215.775 452.523,215.500 452.550 C 215.225 452.577,214.944 452.994,214.875 453.475 C 214.798 454.021,214.421 454.398,213.875 454.475 C 213.321 454.554,212.953 454.930,212.872 455.500 C 212.780 456.151,212.476 456.400,211.772 456.400 C 211.237 456.400,210.821 456.535,210.847 456.700 C 211.056 458.020,210.721 458.360,209.100 458.477 C 207.687 458.579,207.378 458.752,207.272 459.500 C 207.189 460.082,206.869 460.400,206.364 460.400 C 205.919 460.400,205.387 460.831,205.127 461.400 C 204.802 462.115,204.357 462.400,203.569 462.400 C 201.958 462.400,201.200 462.789,201.200 463.615 C 201.200 464.067,200.858 464.393,200.300 464.472 C 199.722 464.554,199.354 464.922,199.272 465.500 C 199.155 466.327,197.805 466.683,195.580 466.474 C 195.459 466.463,195.318 467.071,195.267 467.827 L 195.175 469.200 266.387 469.200 L 337.600 469.200 337.600 468.026 C 337.600 466.363,336.927 464.800,336.210 464.800 C 335.799 464.800,335.600 464.409,335.600 463.600 C 335.600 462.940,335.465 462.421,335.300 462.447 C 334.252 462.613,333.639 462.285,333.528 461.500 C 333.447 460.929,333.079 460.554,332.521 460.475 C 331.779 460.369,331.623 460.056,331.521 458.475 C 331.418 456.879,331.266 456.581,330.500 456.472 C 329.849 456.380,329.600 456.076,329.600 455.372 C 329.600 454.602,329.392 454.400,328.600 454.400 C 327.751 454.400,327.600 454.215,327.600 453.176 C 327.600 452.472,327.432 452.056,327.205 452.197 C 326.975 452.339,326.913 452.172,327.057 451.797 C 327.226 451.356,327.034 451.082,326.452 450.929 C 325.703 450.734,325.359 449.868,325.559 448.681 C 325.588 448.506,325.385 448.392,325.106 448.428 C 323.943 448.581,323.600 448.347,323.600 447.400 C 323.600 446.600,323.400 446.400,322.600 446.400 C 321.680 446.400,321.600 446.255,321.600 444.576 C 321.600 443.463,321.444 442.849,321.200 443.000 C 320.980 443.136,320.800 443.057,320.800 442.824 C 320.800 442.591,320.530 442.400,320.200 442.400 C 319.827 442.400,319.600 442.022,319.600 441.400 C 319.600 440.674,319.385 440.400,318.818 440.400 C 318.239 440.400,317.967 440.031,317.769 438.977 C 317.609 438.124,317.122 437.305,316.551 436.931 C 316.028 436.588,315.600 436.063,315.600 435.763 C 315.600 435.464,315.152 434.925,314.603 434.565 C 314.055 434.206,313.710 433.745,313.837 433.540 C 313.964 433.335,313.622 432.818,313.078 432.390 C 312.197 431.697,311.358 429.908,311.534 429.100 C 311.570 428.935,311.253 428.800,310.828 428.800 C 310.332 428.800,310.010 428.478,309.928 427.900 C 309.847 427.329,309.479 426.954,308.921 426.875 C 308.214 426.774,307.989 426.397,307.772 424.951 C 307.572 423.620,307.353 423.209,306.930 423.371 C 306.613 423.493,306.467 423.415,306.603 423.195 C 306.737 422.978,306.669 422.800,306.451 422.800 C 306.234 422.800,305.998 422.395,305.928 421.900 C 305.846 421.322,305.478 420.954,304.900 420.872 C 304.249 420.780,304.000 420.476,304.000 419.772 C 304.000 419.237,303.807 418.800,303.571 418.800 C 302.831 418.800,301.958 417.655,301.822 416.505 C 301.750 415.897,301.671 415.257,301.646 415.082 C 301.621 414.908,301.285 414.818,300.900 414.882 C 300.397 414.967,300.164 414.691,300.073 413.900 C 299.974 413.036,299.738 412.800,298.973 412.800 C 298.159 412.800,298.000 412.605,298.000 411.600 C 298.000 410.940,297.826 410.400,297.613 410.400 C 297.399 410.400,297.322 410.146,297.441 409.836 C 297.570 409.500,297.333 409.169,296.854 409.017 C 296.412 408.877,295.994 408.366,295.925 407.881 C 295.856 407.396,295.575 406.978,295.300 406.950 C 295.025 406.923,294.620 406.878,294.400 406.850 C 294.180 406.822,294.000 406.350,294.000 405.800 C 294.000 405.217,293.770 404.800,293.449 404.800 C 292.609 404.800,291.952 403.791,291.914 402.442 C 291.895 401.774,291.769 401.295,291.635 401.378 C 291.205 401.644,290.098 400.606,289.943 399.790 C 289.856 399.338,289.409 398.945,288.896 398.872 C 288.208 398.774,288.000 398.480,288.000 397.605 C 288.000 395.945,287.615 395.200,286.757 395.200 C 286.216 395.200,286.000 394.914,286.000 394.200 C 286.000 393.400,285.800 393.200,285.000 393.200 C 284.250 393.200,284.000 392.989,284.000 392.358 C 284.000 391.894,283.550 391.161,283.000 390.729 C 282.281 390.163,282.000 389.557,282.000 388.571 C 282.000 387.375,281.872 387.200,281.000 387.200 C 280.200 387.200,280.000 387.000,280.000 386.200 C 280.000 385.486,279.784 385.200,279.243 385.200 C 278.379 385.200,278.000 384.455,278.000 382.757 C 278.000 381.870,277.754 381.487,277.000 381.200 C 276.388 380.967,276.000 380.506,276.000 380.010 C 276.000 379.483,275.736 379.200,275.245 379.200 C 274.699 379.200,274.417 378.814,274.229 377.811 C 274.085 377.048,273.644 376.193,273.249 375.911 C 272.853 375.630,272.403 374.889,272.248 374.264 C 272.058 373.497,271.779 373.199,271.389 373.349 C 270.803 373.574,269.831 372.302,270.261 371.872 C 270.389 371.744,270.041 371.525,269.488 371.386 C 268.666 371.180,268.433 370.816,268.222 369.409 C 268.040 368.195,267.742 367.626,267.216 367.488 C 266.804 367.381,266.408 366.867,266.334 366.346 C 266.246 365.722,265.894 365.357,265.300 365.272 C 264.643 365.179,264.400 364.876,264.400 364.154 C 264.400 363.609,263.950 362.714,263.400 362.164 C 262.850 361.614,262.400 360.979,262.400 360.753 C 262.400 360.236,261.383 359.200,260.875 359.200 C 260.665 359.200,260.399 358.840,260.284 358.400 C 260.075 357.600,257.337 357.196,256.667 357.867 " stroke="none" fill="#cc04eb" fill-rule="evenodd"></path><path id="path2" d="M122.284 147.850 C 122.128 148.006,122.000 149.351,122.000 150.839 C 122.000 153.340,121.932 153.554,121.100 153.672 C 120.275 153.789,120.190 154.040,120.083 156.674 C 119.976 159.292,119.887 159.560,119.083 159.674 C 118.315 159.784,118.184 160.082,118.077 161.974 C 117.979 163.691,117.748 164.323,116.977 164.986 C 116.236 165.623,116.000 166.222,116.000 167.469 C 116.000 168.889,115.864 169.147,115.000 169.364 C 114.130 169.583,114.000 169.836,114.000 171.313 C 114.000 172.690,113.830 173.085,113.100 173.405 C 112.417 173.705,112.171 174.189,112.081 175.413 C 111.992 176.626,111.744 177.122,111.081 177.413 C 110.410 177.708,110.171 178.200,110.078 179.475 C 109.978 180.849,109.799 181.173,109.078 181.275 C 108.338 181.380,108.181 181.694,108.079 183.275 C 107.977 184.856,107.821 185.169,107.079 185.275 C 106.521 185.354,106.153 185.729,106.072 186.301 C 106.002 186.796,105.598 187.387,105.175 187.614 C 104.707 187.864,104.307 188.639,104.155 189.591 C 103.964 190.785,103.703 191.186,103.052 191.278 C 102.448 191.365,102.162 191.734,102.069 192.548 C 101.997 193.179,101.502 194.100,100.969 194.594 C 100.436 195.088,100.000 195.864,100.000 196.318 C 100.000 196.870,99.702 197.187,99.100 197.272 C 98.521 197.354,98.154 197.722,98.072 198.301 C 98.002 198.796,97.604 199.384,97.189 199.606 C 96.774 199.828,96.321 200.616,96.182 201.357 C 96.015 202.245,95.600 202.854,94.964 203.143 C 94.434 203.385,94.000 203.926,94.000 204.345 C 94.000 204.767,93.648 205.199,93.211 205.313 C 92.651 205.459,92.346 205.995,92.160 207.160 C 91.967 208.365,91.710 208.800,91.188 208.800 C 90.759 208.800,90.313 209.275,90.060 210.000 C 89.830 210.660,89.378 211.200,89.056 211.200 C 88.682 211.200,88.370 211.795,88.192 212.849 C 87.999 213.989,87.678 214.559,87.152 214.697 C 86.734 214.806,86.288 215.307,86.162 215.810 C 86.036 216.313,85.587 216.815,85.166 216.925 C 84.720 217.041,84.400 217.474,84.400 217.959 C 84.400 218.418,84.035 219.020,83.590 219.297 C 83.113 219.593,82.681 220.417,82.539 221.300 C 82.339 222.544,82.136 222.800,81.349 222.800 C 80.630 222.800,80.400 223.019,80.400 223.705 C 80.400 224.260,80.052 224.763,79.500 225.005 C 78.888 225.274,78.536 225.848,78.400 226.800 C 78.264 227.752,77.912 228.326,77.300 228.595 C 76.760 228.832,76.400 229.341,76.400 229.867 C 76.400 230.472,76.121 230.784,75.500 230.872 C 74.921 230.954,74.554 231.322,74.472 231.901 C 74.402 232.396,73.998 232.987,73.575 233.214 C 73.104 233.465,72.707 234.242,72.552 235.213 C 72.339 236.545,72.145 236.800,71.349 236.800 C 70.603 236.800,70.400 237.014,70.400 237.800 C 70.400 238.514,70.184 238.800,69.643 238.800 C 68.811 238.800,68.400 239.542,68.400 241.043 C 68.400 241.717,68.090 242.138,67.400 242.400 C 66.827 242.618,66.400 243.099,66.400 243.526 C 66.400 243.936,65.950 244.477,65.400 244.727 C 64.850 244.978,64.400 245.449,64.400 245.773 C 64.400 246.098,63.950 246.814,63.400 247.364 C 62.850 247.914,62.400 248.809,62.400 249.354 C 62.400 250.076,62.157 250.379,61.500 250.472 C 60.928 250.553,60.554 250.921,60.475 251.481 C 60.406 251.966,60.001 252.473,59.576 252.608 C 58.817 252.848,58.430 253.720,58.298 255.483 C 58.262 255.968,58.156 256.290,58.064 256.197 C 57.673 255.807,56.400 256.891,56.400 257.614 C 56.400 258.131,56.129 258.400,55.608 258.400 C 55.094 258.400,54.726 258.755,54.562 259.411 C 54.422 259.966,53.970 260.602,53.557 260.823 C 53.105 261.065,52.704 261.859,52.552 262.813 C 52.362 264.000,52.111 264.400,51.556 264.400 C 51.107 264.400,50.720 264.779,50.574 265.362 C 50.441 265.891,50.002 266.411,49.597 266.517 C 49.076 266.653,48.782 267.245,48.586 268.554 C 48.371 269.991,48.144 270.400,47.562 270.400 C 47.107 270.400,46.721 270.776,46.574 271.362 C 46.441 271.891,46.011 272.408,45.619 272.511 C 45.123 272.641,44.822 273.259,44.629 274.549 C 44.408 276.018,44.191 276.400,43.575 276.400 C 43.037 276.400,42.800 276.676,42.800 277.305 C 42.800 277.860,42.452 278.363,41.900 278.605 C 41.239 278.895,40.967 279.397,40.876 280.498 C 40.776 281.703,40.560 282.045,39.776 282.242 C 39.037 282.427,38.800 282.754,38.800 283.587 C 38.800 284.294,38.442 284.956,37.800 285.439 C 37.156 285.923,36.800 286.583,36.800 287.295 C 36.800 288.113,36.603 288.400,36.043 288.400 C 35.195 288.400,34.800 289.143,34.800 290.738 C 34.800 291.466,34.511 291.937,33.900 292.205 C 33.208 292.509,32.972 292.988,32.878 294.275 C 32.778 295.649,32.599 295.973,31.878 296.075 C 31.138 296.180,30.981 296.494,30.879 298.075 C 30.777 299.656,30.621 299.969,29.879 300.075 C 29.138 300.180,28.981 300.493,28.879 302.075 C 28.777 303.656,28.621 303.969,27.879 304.075 C 27.143 304.180,26.981 304.494,26.882 306.013 C 26.789 307.434,26.573 307.910,25.882 308.213 C 25.130 308.543,24.982 308.968,24.881 311.097 C 24.773 313.369,24.674 313.616,23.781 313.841 C 22.908 314.059,22.800 314.301,22.800 316.025 C 22.800 317.560,22.592 318.172,21.800 318.964 C 20.927 319.837,20.800 320.313,20.800 322.718 C 20.800 325.267,20.726 325.505,19.800 325.927 C 18.840 326.365,18.800 326.528,18.800 330.027 C 18.800 333.324,18.714 333.741,17.900 334.400 C 16.205 335.772,16.329 366.247,18.031 366.692 C 18.716 366.871,18.800 367.277,18.800 370.397 C 18.800 374.839,19.119 376.454,20.044 376.696 C 20.641 376.852,20.787 377.381,20.883 379.742 C 20.989 382.343,21.080 382.611,21.883 382.726 C 22.687 382.840,22.776 383.108,22.883 385.726 C 22.990 388.360,23.075 388.611,23.900 388.728 C 24.686 388.839,24.801 389.093,24.805 390.728 C 24.813 393.264,25.147 394.329,26.021 394.607 C 26.551 394.775,26.790 395.309,26.878 396.520 C 26.971 397.801,27.210 398.292,27.882 398.587 C 28.573 398.890,28.789 399.366,28.882 400.787 C 28.981 402.305,29.143 402.620,29.878 402.725 C 30.599 402.827,30.778 403.151,30.878 404.525 C 30.972 405.812,31.208 406.291,31.900 406.595 C 32.459 406.840,32.800 407.339,32.800 407.913 C 32.800 408.421,33.237 409.273,33.771 409.807 C 34.305 410.341,34.800 411.188,34.871 411.689 C 34.953 412.270,35.318 412.645,35.877 412.725 C 36.571 412.824,36.780 413.158,36.877 414.325 C 36.967 415.402,37.243 415.906,37.900 416.195 C 38.449 416.436,38.800 416.940,38.800 417.487 C 38.800 418.111,39.105 418.461,39.800 418.636 C 40.449 418.799,40.800 419.167,40.800 419.686 C 40.800 420.125,41.238 420.829,41.773 421.250 C 42.308 421.671,42.803 422.417,42.873 422.908 C 42.943 423.399,43.405 423.978,43.900 424.195 C 44.395 424.412,44.800 424.911,44.800 425.305 C 44.800 425.699,45.248 426.190,45.800 426.400 C 46.412 426.633,46.800 427.094,46.800 427.590 C 46.800 428.131,47.063 428.400,47.592 428.400 C 48.104 428.400,48.474 428.754,48.636 429.400 C 48.786 429.999,49.173 430.400,49.600 430.400 C 50.027 430.400,50.414 430.801,50.564 431.400 C 50.720 432.021,51.099 432.400,51.564 432.400 C 52.030 432.400,52.408 432.779,52.564 433.400 C 52.720 434.021,53.099 434.400,53.564 434.400 C 54.030 434.400,54.408 434.779,54.564 435.400 C 54.728 436.051,55.095 436.400,55.618 436.400 C 56.105 436.400,56.569 436.792,56.800 437.400 C 57.041 438.035,57.491 438.400,58.033 438.400 C 58.501 438.400,59.239 438.850,59.671 439.400 C 60.113 439.962,60.872 440.400,61.401 440.400 C 62.075 440.400,62.381 440.657,62.472 441.300 C 62.554 441.878,62.922 442.246,63.500 442.328 C 63.995 442.398,64.400 442.610,64.400 442.799 C 64.400 443.574,65.742 444.400,67.001 444.400 C 68.090 444.400,68.369 444.571,68.472 445.300 C 68.560 445.919,68.913 446.236,69.600 446.317 C 71.025 446.483,72.400 447.244,72.400 447.868 C 72.400 448.192,72.868 448.400,73.600 448.400 C 74.409 448.400,74.800 448.599,74.800 449.010 C 74.800 449.674,76.331 450.400,77.730 450.400 C 78.213 450.400,79.093 450.850,79.687 451.400 C 80.508 452.162,81.198 452.400,82.583 452.400 C 84.099 452.400,84.400 452.525,84.400 453.157 C 84.400 454.131,85.151 454.400,87.870 454.400 C 89.712 454.400,90.108 454.527,90.277 455.172 C 90.549 456.211,91.022 456.344,94.766 456.435 C 96.533 456.477,97.905 456.630,97.815 456.775 C 97.176 457.809,98.560 458.205,103.266 458.335 C 107.108 458.442,108.261 458.604,108.615 459.089 C 109.982 460.957,138.612 461.004,139.100 459.138 C 139.274 458.473,139.762 458.400,143.997 458.400 C 149.804 458.400,151.200 458.158,151.200 457.150 C 151.200 456.484,151.533 456.400,154.174 456.400 C 157.488 456.400,159.200 455.926,159.200 455.010 C 159.200 454.532,159.713 454.400,161.567 454.400 C 164.450 454.400,165.200 454.143,165.200 453.157 C 165.200 452.528,165.500 452.400,166.974 452.400 C 169.180 452.400,170.800 451.812,170.800 451.010 C 170.800 450.577,171.215 450.400,172.226 450.400 C 173.927 450.400,175.200 449.795,175.200 448.986 C 175.200 448.585,175.634 448.400,176.571 448.400 C 177.873 448.400,179.200 447.578,179.200 446.771 C 179.200 446.567,179.658 446.400,180.218 446.400 C 180.778 446.400,181.673 445.963,182.207 445.429 C 182.741 444.895,183.588 444.400,184.089 444.329 C 184.678 444.246,185.045 443.882,185.128 443.300 C 185.221 442.641,185.523 442.400,186.254 442.400 C 187.571 442.400,188.800 441.717,188.800 440.986 C 188.800 440.635,189.183 440.400,189.757 440.400 C 190.443 440.400,190.784 440.118,190.964 439.400 C 191.125 438.758,191.497 438.400,192.000 438.400 C 192.503 438.400,192.875 438.042,193.036 437.400 C 193.213 436.693,193.558 436.400,194.214 436.400 C 194.725 436.400,195.477 435.974,195.886 435.454 C 196.295 434.934,197.019 434.384,197.495 434.233 C 197.970 434.083,198.464 433.628,198.593 433.223 C 198.721 432.818,199.194 432.390,199.643 432.273 C 200.092 432.155,200.555 431.692,200.673 431.243 C 200.790 430.794,201.218 430.321,201.623 430.193 C 202.028 430.064,202.472 429.603,202.611 429.167 C 202.749 428.731,203.298 427.938,203.831 427.405 C 204.364 426.872,204.800 426.154,204.800 425.808 C 204.800 425.463,205.250 425.009,205.800 424.800 C 206.387 424.577,206.800 424.103,206.800 423.653 C 206.800 423.169,207.169 422.794,207.800 422.636 C 208.521 422.455,208.800 422.115,208.800 421.420 C 208.800 420.724,209.051 420.420,209.700 420.328 C 210.295 420.243,210.646 419.878,210.735 419.249 C 210.808 418.726,211.303 417.895,211.835 417.403 C 212.366 416.911,212.800 416.143,212.800 415.697 C 212.800 415.166,213.145 414.800,213.800 414.636 C 214.678 414.415,214.800 414.169,214.800 412.620 C 214.800 411.095,214.922 410.838,215.700 410.728 C 216.334 410.638,216.636 410.287,216.723 409.541 C 216.796 408.908,217.148 408.402,217.596 408.285 C 218.097 408.154,218.438 407.574,218.620 406.544 C 218.770 405.695,219.237 404.726,219.657 404.390 C 220.077 404.055,220.533 403.092,220.669 402.250 C 220.806 401.407,221.341 400.295,221.859 399.777 C 222.598 399.038,222.800 398.404,222.800 396.818 C 222.800 395.105,222.914 394.800,223.557 394.800 C 224.490 394.800,224.800 394.050,224.800 391.791 C 224.800 390.832,224.983 389.934,225.207 389.796 C 225.430 389.658,225.491 389.332,225.342 389.072 C 225.194 388.813,225.219 388.733,225.399 388.897 C 226.208 389.629,226.800 388.214,226.800 385.551 C 226.800 383.123,226.889 382.800,227.553 382.800 C 228.512 382.800,228.788 381.762,228.795 378.127 C 228.799 375.673,228.909 375.219,229.549 375.016 C 230.512 374.711,230.790 373.024,230.796 367.464 C 230.800 363.453,230.867 363.074,231.700 362.400 L 232.600 361.671 232.600 347.985 L 232.600 334.298 231.700 333.700 C 230.895 333.166,230.800 332.773,230.800 330.001 C 230.800 325.927,230.461 324.341,229.539 324.100 C 228.942 323.944,228.799 323.511,228.795 321.853 C 228.787 319.034,228.454 318.000,227.553 318.000 C 226.945 318.000,226.800 317.701,226.800 316.450 C 226.800 313.931,226.365 312.443,225.552 312.185 C 225.013 312.014,224.800 311.567,224.800 310.606 C 224.800 308.759,224.444 308.000,223.579 308.000 C 222.986 308.000,222.820 307.633,222.722 306.100 C 222.619 304.493,222.464 304.181,221.721 304.075 C 220.979 303.969,220.823 303.656,220.721 302.075 C 220.619 300.493,220.462 300.180,219.721 300.075 C 218.979 299.969,218.823 299.656,218.721 298.075 C 218.618 296.479,218.466 296.181,217.700 296.072 C 216.922 295.962,216.800 295.705,216.800 294.180 C 216.800 292.631,216.678 292.385,215.800 292.164 C 214.946 291.950,214.800 291.684,214.800 290.347 C 214.800 289.069,214.626 288.714,213.856 288.421 C 213.157 288.156,212.846 287.646,212.656 286.458 C 212.477 285.343,212.155 284.776,211.600 284.600 C 211.091 284.438,210.800 283.995,210.800 283.381 C 210.800 282.690,210.521 282.345,209.821 282.170 C 209.008 281.965,208.822 281.643,208.721 280.262 C 208.621 278.888,208.444 278.578,207.700 278.472 C 207.070 278.383,206.800 278.073,206.800 277.442 C 206.800 276.946,206.350 276.117,205.800 275.600 C 205.191 275.028,204.800 274.219,204.800 273.530 C 204.800 272.608,204.626 272.400,203.851 272.400 C 203.050 272.400,202.862 272.145,202.640 270.760 C 202.454 269.595,202.149 269.059,201.589 268.913 C 201.034 268.768,200.800 268.365,200.800 267.553 C 200.800 266.590,200.635 266.400,199.800 266.400 C 199.006 266.400,198.800 266.199,198.800 265.421 C 198.800 264.882,198.350 263.956,197.800 263.362 C 197.250 262.769,196.800 261.933,196.800 261.504 C 196.800 261.060,196.454 260.635,195.996 260.515 C 195.553 260.399,195.088 259.893,194.962 259.390 C 194.836 258.887,194.407 258.391,194.010 258.287 C 193.528 258.161,193.195 257.553,193.011 256.465 C 192.831 255.399,192.483 254.753,192.007 254.602 C 191.607 254.475,191.168 253.928,191.032 253.386 C 190.880 252.778,190.498 252.400,190.037 252.400 C 189.500 252.400,189.216 252.008,189.029 251.011 C 188.885 250.248,188.441 249.393,188.041 249.111 C 187.642 248.830,187.190 248.204,187.037 247.720 C 186.884 247.237,186.420 246.733,186.005 246.602 C 185.590 246.470,185.194 245.966,185.125 245.481 C 185.048 244.939,184.672 244.553,184.148 244.478 C 183.492 244.385,183.236 243.983,183.036 242.738 C 182.857 241.613,182.544 241.058,182.011 240.919 C 181.590 240.809,181.190 240.332,181.122 239.859 C 181.046 239.321,180.663 238.952,180.100 238.872 C 179.457 238.781,179.200 238.475,179.200 237.801 C 179.200 237.272,178.762 236.513,178.200 236.071 C 177.650 235.639,177.200 235.010,177.200 234.675 C 177.200 233.531,176.715 232.800,175.957 232.800 C 175.416 232.800,175.200 232.514,175.200 231.800 C 175.200 231.014,174.997 230.800,174.251 230.800 C 173.450 230.800,173.262 230.545,173.040 229.160 C 172.857 228.015,172.546 227.459,172.011 227.319 C 171.548 227.198,171.197 226.701,171.123 226.059 C 171.036 225.313,170.734 224.962,170.100 224.872 C 169.449 224.780,169.200 224.476,169.200 223.772 C 169.200 223.002,168.992 222.800,168.200 222.800 C 167.340 222.800,167.199 222.618,167.194 221.500 C 167.187 220.019,166.887 219.447,165.931 219.095 C 165.563 218.960,165.203 218.433,165.131 217.924 C 165.046 217.322,164.687 216.956,164.100 216.872 C 163.470 216.783,163.200 216.473,163.200 215.840 C 163.200 215.284,162.814 214.729,162.200 214.400 C 161.451 213.999,161.200 213.541,161.200 212.576 C 161.200 211.544,161.006 211.238,160.228 211.043 C 159.621 210.890,159.207 210.460,159.128 209.899 C 159.046 209.322,158.678 208.954,158.100 208.872 C 157.368 208.768,157.200 208.490,157.200 207.381 C 157.200 206.369,156.943 205.850,156.200 205.363 C 155.650 205.003,155.200 204.369,155.200 203.954 C 155.200 203.539,154.935 203.200,154.610 203.200 C 154.286 203.200,153.758 202.692,153.437 202.071 C 153.116 201.450,152.576 200.712,152.237 200.431 C 151.898 200.150,151.506 199.308,151.366 198.560 C 151.187 197.605,150.894 197.200,150.383 197.200 C 149.933 197.200,149.607 196.857,149.528 196.300 C 149.446 195.722,149.078 195.354,148.500 195.272 C 147.856 195.181,147.600 194.875,147.600 194.198 C 147.600 192.739,146.887 191.200,146.210 191.200 C 145.874 191.200,145.600 190.883,145.600 190.496 C 145.600 190.109,145.164 189.322,144.632 188.747 C 144.099 188.173,143.604 187.185,143.532 186.551 C 143.437 185.722,143.155 185.365,142.522 185.275 C 141.801 185.173,141.622 184.849,141.522 183.475 C 141.429 182.200,141.190 181.708,140.519 181.413 C 139.856 181.122,139.608 180.626,139.519 179.413 C 139.429 178.189,139.183 177.705,138.500 177.405 C 137.795 177.096,137.600 176.683,137.600 175.497 C 137.600 174.270,137.410 173.896,136.600 173.527 C 135.758 173.144,135.600 172.799,135.600 171.343 C 135.600 169.856,135.467 169.582,134.647 169.376 C 133.817 169.168,133.670 168.849,133.510 166.918 C 133.374 165.276,133.106 164.529,132.484 164.049 C 131.895 163.595,131.606 162.860,131.521 161.600 C 131.420 160.093,131.256 159.780,130.517 159.674 C 129.713 159.560,129.624 159.292,129.517 156.674 C 129.410 154.057,129.321 153.789,128.517 153.674 C 127.713 153.560,127.624 153.292,127.517 150.674 L 127.400 147.800 124.984 147.683 C 123.655 147.619,122.440 147.694,122.284 147.850 M38.538 231.017 C 38.178 231.955,38.567 232.066,39.119 231.182 C 39.428 230.687,39.454 230.400,39.191 230.400 C 38.962 230.400,38.668 230.678,38.538 231.017 " stroke="none" fill="#0494f4" fill-rule="evenodd"></path><path id="path3" d="M24.800 2.229 C 24.800 4.494,24.237 5.612,23.262 5.287 C 22.908 5.169,22.757 5.426,22.810 6.055 C 23.081 9.314,22.805 10.669,21.772 11.140 C 21.067 11.461,20.767 11.890,20.816 12.504 C 21.077 15.727,20.808 17.064,19.907 17.032 C 18.961 16.998,18.928 17.079,18.850 19.624 C 18.819 20.640,18.644 21.151,18.382 20.989 C 17.613 20.514,16.800 21.674,16.800 23.249 C 16.800 24.515,16.658 24.800,16.027 24.800 C 15.325 24.800,14.680 25.804,14.834 26.659 C 15.061 27.928,14.707 28.737,13.827 28.958 C 13.062 29.149,12.861 29.452,12.887 30.369 C 12.920 31.528,12.052 32.800,11.229 32.800 C 10.993 32.800,10.800 33.230,10.800 33.757 C 10.800 34.454,10.517 34.784,9.758 34.975 C 8.983 35.169,8.767 35.431,8.915 35.996 C 9.059 36.547,8.878 36.789,8.257 36.878 C 7.661 36.963,7.362 37.331,7.275 38.086 C 7.206 38.685,6.623 39.614,5.975 40.160 C 5.329 40.704,4.800 41.387,4.800 41.679 C 4.800 41.971,4.395 42.388,3.900 42.605 C 3.405 42.822,2.944 43.395,2.875 43.878 C 2.797 44.427,2.546 44.677,2.206 44.547 C 1.907 44.432,1.288 44.712,0.831 45.169 L 0.000 46.000 0.000 165.753 L 0.000 285.507 0.900 285.748 C 2.372 286.142,2.794 286.039,2.732 285.300 C 2.526 282.837,2.797 282.000,3.800 282.000 C 4.592 282.000,4.800 281.798,4.800 281.028 C 4.800 280.324,5.049 280.020,5.700 279.928 C 6.468 279.819,6.618 279.521,6.722 277.900 C 6.832 276.185,6.939 276.000,7.822 276.000 C 8.360 276.000,8.779 275.865,8.753 275.700 C 8.602 274.749,8.903 274.144,9.700 273.795 C 10.361 273.505,10.633 273.003,10.724 271.902 C 10.822 270.722,11.045 270.354,11.774 270.171 C 12.424 270.008,12.700 269.649,12.700 268.966 C 12.700 268.393,13.131 267.655,13.750 267.168 C 14.430 266.633,14.800 265.953,14.800 265.239 C 14.800 264.353,14.977 264.143,15.700 264.168 C 16.413 264.193,16.608 263.972,16.640 263.105 C 16.665 262.429,17.087 261.690,17.740 261.175 C 18.351 260.695,18.800 259.943,18.800 259.399 C 18.800 258.725,19.057 258.419,19.700 258.328 C 20.419 258.226,20.640 257.880,20.800 256.610 C 20.944 255.465,21.259 254.891,21.925 254.560 C 22.434 254.308,22.839 253.988,22.825 253.851 C 22.718 252.786,22.918 252.439,23.700 252.328 C 24.272 252.247,24.646 251.879,24.725 251.319 C 24.794 250.834,25.190 250.330,25.604 250.199 C 26.130 250.032,26.437 249.423,26.624 248.180 C 26.854 246.645,27.022 246.400,27.845 246.400 C 28.597 246.400,28.800 246.187,28.800 245.400 C 28.800 244.670,29.014 244.400,29.592 244.400 C 30.101 244.400,30.473 244.047,30.632 243.414 C 30.768 242.872,31.200 242.327,31.592 242.202 C 32.309 241.975,32.993 239.836,32.568 239.149 C 32.443 238.945,32.893 238.586,33.570 238.351 C 34.362 238.074,34.800 237.651,34.800 237.161 C 34.800 236.491,35.204 236.227,36.060 236.339 C 36.203 236.358,36.431 235.929,36.568 235.387 C 36.714 234.803,37.104 234.400,37.522 234.400 C 38.206 234.400,38.325 234.071,38.522 231.633 C 38.565 231.101,38.870 230.584,39.200 230.483 C 39.684 230.335,39.704 230.402,39.300 230.830 C 38.480 231.700,38.734 232.184,39.600 231.400 C 40.040 231.002,40.400 230.266,40.400 229.766 C 40.400 229.126,40.668 228.818,41.300 228.728 C 41.865 228.648,42.246 228.279,42.323 227.738 C 42.398 227.213,42.828 226.779,43.423 226.630 C 44.315 226.406,44.687 225.416,44.447 223.900 C 44.370 223.408,45.120 223.560,45.290 224.071 C 45.494 224.681,46.400 224.124,46.400 223.389 C 46.400 223.036,46.139 222.906,45.700 223.043 C 45.033 223.250,45.033 223.239,45.700 222.810 C 46.085 222.563,46.400 222.009,46.400 221.580 C 46.400 221.015,46.675 220.800,47.400 220.800 C 48.200 220.800,48.400 220.600,48.400 219.800 C 48.400 219.250,48.580 218.778,48.800 218.750 C 49.020 218.722,49.425 218.673,49.700 218.641 C 49.975 218.609,50.150 218.285,50.089 217.921 C 50.029 217.558,50.164 217.146,50.389 217.007 C 50.615 216.867,50.800 216.403,50.800 215.976 C 50.800 215.501,51.072 215.202,51.500 215.206 C 52.087 215.211,52.105 215.272,51.612 215.584 C 51.288 215.789,51.153 216.086,51.312 216.245 C 51.775 216.708,52.095 216.134,52.273 214.527 C 52.466 212.769,52.462 212.776,53.555 212.693 C 54.150 212.649,54.400 212.359,54.400 211.715 C 54.400 211.076,54.634 210.800,55.176 210.800 C 55.603 210.800,56.081 210.592,56.238 210.338 C 56.411 210.058,56.348 209.985,56.079 210.151 C 55.415 210.561,56.418 208.771,57.500 207.612 C 57.995 207.083,58.400 206.233,58.400 205.725 C 58.400 204.999,58.621 204.800,59.425 204.800 C 60.256 204.800,60.427 204.631,60.325 203.910 C 60.237 203.281,60.435 202.974,61.000 202.864 C 62.076 202.654,62.387 202.082,62.394 200.300 C 62.400 198.864,62.756 198.540,64.100 198.753 C 64.265 198.779,64.400 198.372,64.400 197.849 C 64.400 197.326,64.705 196.651,65.077 196.349 C 65.537 195.976,65.657 195.960,65.453 196.300 C 65.288 196.575,65.324 196.800,65.534 196.800 C 66.042 196.800,66.400 195.797,66.400 194.375 C 66.400 193.466,66.620 193.160,67.417 192.960 C 68.166 192.772,68.403 192.480,68.317 191.852 C 68.232 191.233,68.441 190.966,69.081 190.875 C 69.883 190.761,70.521 189.801,70.366 188.941 C 70.176 187.876,70.502 187.241,71.300 187.128 C 71.878 187.046,72.246 186.678,72.328 186.100 C 72.398 185.605,72.634 185.200,72.851 185.200 C 73.069 185.200,73.137 185.022,73.003 184.805 C 72.865 184.582,73.017 184.508,73.350 184.636 C 73.799 184.808,74.008 184.420,74.216 183.032 C 74.425 181.641,74.663 181.200,75.206 181.200 C 75.642 181.200,76.086 180.730,76.340 180.000 C 76.570 179.340,77.038 178.800,77.379 178.800 C 77.805 178.800,78.000 178.415,78.000 177.574 C 78.000 176.034,78.654 174.769,79.318 175.024 C 79.631 175.144,79.855 174.842,79.905 174.234 C 79.950 173.692,80.440 172.796,80.993 172.243 C 81.547 171.689,82.000 170.791,82.000 170.246 C 82.000 169.524,82.243 169.221,82.900 169.128 C 83.834 168.995,83.867 168.914,83.950 166.600 C 83.993 165.387,84.133 165.200,85.000 165.200 C 85.933 165.200,86.000 165.067,86.000 163.200 C 86.000 161.333,86.067 161.200,87.000 161.200 C 87.825 161.200,88.000 161.007,88.000 160.096 C 88.000 159.435,88.313 158.797,88.780 158.505 C 89.209 158.237,89.672 157.421,89.809 156.691 C 89.964 155.866,90.387 155.220,90.929 154.982 C 91.408 154.772,91.826 154.240,91.857 153.800 C 91.889 153.360,91.934 152.595,91.957 152.100 C 91.981 151.596,92.258 151.200,92.586 151.200 C 93.319 151.200,94.000 149.970,94.000 148.644 C 94.000 148.090,94.450 147.186,95.000 146.636 C 95.799 145.838,96.000 145.236,96.000 143.646 C 96.000 141.886,96.104 141.641,96.900 141.528 C 97.395 141.458,97.818 141.130,97.839 140.800 C 97.861 140.470,97.906 139.628,97.939 138.928 C 97.987 137.936,98.198 137.627,98.900 137.528 C 99.725 137.411,99.810 137.160,99.917 134.526 C 100.024 131.908,100.113 131.640,100.917 131.526 C 101.721 131.411,101.810 131.143,101.917 128.526 C 102.024 125.908,102.113 125.640,102.917 125.526 C 103.746 125.408,103.808 125.170,103.925 121.608 C 104.039 118.117,104.417 116.916,105.239 117.424 C 105.744 117.736,105.909 116.612,105.968 112.454 C 106.018 108.851,106.130 108.231,106.872 107.470 C 107.337 106.991,107.572 106.870,107.395 107.200 C 107.203 107.556,107.220 107.664,107.436 107.465 C 107.826 107.105,107.867 106.513,107.947 99.913 C 107.991 96.383,108.101 95.664,108.569 95.844 C 109.327 96.134,110.074 94.675,109.988 93.073 C 109.625 86.371,110.037 79.311,110.841 78.448 C 111.382 77.867,111.617 77.202,111.499 76.584 C 111.398 76.056,111.457 75.711,111.629 75.818 C 111.801 75.924,111.960 58.909,111.983 38.006 L 112.023 0.000 68.412 0.000 L 24.800 0.000 24.800 2.229 M57.170 255.854 C 56.285 256.816,56.274 256.870,57.047 256.468 C 57.513 256.226,57.971 256.104,58.064 256.197 C 58.156 256.290,58.259 256.013,58.291 255.583 C 58.367 254.584,58.330 254.592,57.170 255.854 M226.196 388.807 C 226.058 389.030,225.732 389.091,225.472 388.942 C 225.213 388.794,225.133 388.819,225.297 388.999 C 225.460 389.179,225.393 389.568,225.148 389.863 C 224.872 390.196,224.856 390.400,225.105 390.400 C 225.327 390.400,225.803 389.950,226.163 389.400 C 226.524 388.850,226.735 388.400,226.633 388.400 C 226.531 388.400,226.334 388.583,226.196 388.807 M70.800 446.783 C 70.800 446.997,71.160 447.365,71.600 447.600 C 72.040 447.835,72.400 447.885,72.400 447.710 C 72.400 447.535,72.040 447.168,71.600 446.893 C 71.157 446.616,70.800 446.567,70.800 446.783 M78.756 451.100 C 79.016 451.595,79.522 452.000,79.881 452.000 C 80.240 452.000,80.458 451.953,80.367 451.896 C 80.275 451.838,79.769 451.433,79.242 450.996 L 78.284 450.200 78.756 451.100 M96.914 456.942 C 97.126 457.579,97.867 457.685,97.867 457.078 C 97.867 456.778,97.622 456.533,97.322 456.533 C 97.023 456.533,96.839 456.717,96.914 456.942 " stroke="none" fill="#04f3fc" fill-rule="evenodd"></path><path id="path4" d="" stroke="none" fill="#6ca0f0" fill-rule="evenodd"></path></g></svg>